<svg fill="none" height="32" viewBox="0 0 32 32" width="32" xmlns="http://www.w3.org/2000/svg"><g fill="#5574c4"><path d="m29.8485 10.4482-1.3958-.98401-.0194-1.70763c-.0011-.09966-.032-.19671-.0887-.2787-.0566-.08199-.1365-.14516-.2294-.18142l-1.5905-.62107-.426-1.65356c-.0248-.09653-.078-.18341-.1526-.24951s-.1673-.10838-.2661-.12143l-1.6924-.22456-.808-1.50437c-.0473-.08777-.1197-.15943-.2079-.20582-.0882-.0464-.1883-.06542-.2874-.05462l-1.6976.1875-1.1463-1.26644c-.0669-.07401-.1545-.12628-.2514-.15007s-.1987-.01802-.2923.01657l-1.6023.59056-1.4158-.95425c-.0825-.05564-.1798-.08537-.2794-.08537s-.1969.02973-.2795.08537l-1.416.95425-1.6023-.59062c-.0936-.03454-.1955-.04027-.2924-.01647s-.1844.07605-.2514.15003l-1.1459 1.26619-1.69758-.18719c-.09913-.011-.19928.00793-.28755.05434-.08828.04642-.16064.1182-.20776.2061l-.80794 1.50437-1.69294.22457c-.09883.01305-.1915.05534-.26612.12145-.07461.0661-.12777.15301-.15263.24955l-.42587 1.65356-1.59057.62106c-.09282.03626-.1727.09943-.22937.1814s-.08756.17901-.08869.27866l-.01937 1.70763-1.3955.98405c-.08153.0575-.14401.138-.17939.2313s-.04206.195-.01918.2921l.39188 1.6625-1.11769 1.2909c-.06521.0753-.10641.1684-.11833.2674-.01191.0989.00601.1991.05146.2878l.77881 1.5198-.77881 1.5195c-.04545.0886-.06337.1889-.05146.2878.01192.0989.05312.1921.11833.2674l1.1175 1.2914-.39187 1.6625c-.02287.0971-.01618.1988.01922.292.03539.0933.09787.1738.1794.2313l1.39581.9841.01938 1.7076c.00112.0996.032.1967.08867.2787s.13655.1451.22939.1814l1.59075.6213.42594 1.6535c.02487.0965.07803.1834.15264.2495.07462.0661.16729.1084.26611.1215l1.69269.2245.80793 1.5044c.04729.0878.11967.1594.20791.2058.08823.0464.18831.0654.28741.0546l1.69759-.1872 1.1463 1.2662c.067.0739.1545.1262.2514.15s.1987.018.2923-.0165l1.6023-.5906 1.416.9543c.0825.0556.1799.0853.2794.0853.0996 0 .1969-.0297.2795-.0853l1.416-.9543 1.6023.5906c.0937.0345.1954.0402.2923.0164s.1845-.076.2515-.1499l1.1462-1.2662 1.6976.1875c.0991.0109.1992-.008.2875-.0545.0883-.0464.1606-.1181.2078-.206l.8079-1.5043 1.6928-.2246c.0988-.013.1915-.0553.2661-.1214s.1278-.1531.1526-.2496l.4259-1.6536 1.5906-.621c.0928-.0363.1727-.0994.2294-.1814.0566-.082.0875-.179.0886-.2787l.0194-1.7076 1.3958-.9841c.0816-.0574.144-.138.1794-.2313.0354-.0932.0421-.1949.0192-.292l-.3919-1.6625 1.1168-1.2915c.0652-.0754.1064-.1685.1184-.2674.0119-.099-.006-.1992-.0515-.2879l-.7788-1.5197.7788-1.5195c.0455-.0887.0634-.189.0515-.2879-.012-.0989-.0532-.192-.1184-.2674l-1.1175-1.2914.3919-1.6625c.0228-.0971.0161-.1987-.0193-.292-.0355-.0932-.098-.1737-.1795-.2312zm-.0524 3.8764-.7419 1.4475c-.0362.0705-.0551.1487-.0551.2281 0 .0793.0189.1575.0551.2281l.7419 1.4474-1.0642 1.2295c-.0517.0598-.0886.1311-.1075.2079s-.0192.157-.0011.234l.373 1.5823-1.3287.9368c-.0647.0456-.1176.1059-.1545.176-.0368.07-.0565.1478-.0574.2269l-.0187 1.6259-1.5148.5915c-.0738.0288-.1397.0748-.1923.1341-.0525.0593-.0902.1302-.11.207l-.4057 1.575-1.612.2138c-.0786.0104-.1536.0393-.2188.0843-.0652.0451-.1187.105-.1562.1748l-.7688 1.4321-1.616-.1783c-.0786-.0086-.1581.0015-.2321.0296-.0739.0281-.1402.0732-.1933.1318l-1.0911 1.2054-1.5256-.5625c-.0743-.0274-.1541-.0367-.2327-.0272s-.1539.0375-.2196.0817l-1.3488.9091-1.3488-.909c-.0657-.0442-.141-.0722-.2196-.0817-.0787-.0095-.1584-.0001-.2327.0272l-1.5255.5625-1.0911-1.2052c-.0531-.0586-.1194-.1038-.1933-.1318-.074-.0281-.1535-.0382-.2321-.0296l-1.6161.1782-.76932-1.4327c-.0375-.0699-.09105-.1298-.15625-.1748-.0652-.0451-.14018-.074-.21875-.0844l-1.612-.2138-.40575-1.575c-.01976-.0767-.05747-.1476-.11002-.2069s-.11844-.1052-.19223-.1341l-1.51481-.5915-.01794-1.6258c-.00089-.0791-.02055-.1569-.05737-.227-.03683-.0701-.08976-.1304-.15444-.176l-1.32875-.9367.37294-1.5824c.01817-.0769.01779-.1572-.00109-.234-.01889-.0768-.05574-.148-.10754-.2078l-1.06437-1.2294.74181-1.4474c.03624-.0706.05514-.1488.05514-.2282 0-.0793-.0189-.1575-.05514-.2281l-.74181-1.4472 1.06412-1.2294c.05178-.0598.08863-.1311.10751-.2079s.01927-.157.00112-.2341l-.373-1.5822 1.32875-.9368c.06467-.0456.1176-.1059.15442-.17598.03682-.07005.05649-.14784.05739-.22697l.01875-1.62588 1.51481-.5915c.0738-.02883.13969-.07479.19224-.13409s.09026-.13024.11001-.20697l.40569-1.575 1.61206-.21381c.07857-.01038.15355-.03929.21875-.08435.0652-.04505.11876-.10496.15625-.17478l.76875-1.43231 1.61597.17825c.0787.00856.1582-.0016.2321-.02966.074-.02806.1402-.07321.1934-.13178l1.091-1.20531 1.5257.5625c.0743.02733.1541.03663.2327.02715.0786-.00949.1539-.03749.2196-.08171l1.3488-.90906 1.3488.90893c.0657.04427.1409.07229.2196.08176.0786.00948.1584.00014.2327-.02726l1.5255-.5625 1.0911 1.20525c.0531.05858.1194.10375.1933.13181s.1535.03821.2321.02963l1.6161-.17825.7693 1.43275c.0375.06982.091.12973.1562.17478.0652.04506.1402.07397.2188.08435l1.612.21381.4057 1.575c.0198.07672.0575.14764.1101.20693.0525.05929.1184.10524.1922.13407l1.5148.5915.0179 1.62581c.0009.07915.0206.15695.0574.22701.0368.07008.0898.13038.1544.17598l1.3288.9368-.3729 1.5823c-.0182.077-.0178.1572.001.234.0189.0768.0558.1481.1076.2078z"/><path d="m24.9997 15.9999v.021h1v-.021c0-.3488-.018-.6974-.0539-1.0443l-.9946.1032c.0323.3127.0484.6268.0485.9411z"/><path d="m7.77123 19.6509-.91381.4062c.14199.3191.30054.6305.475.933l.86625-.4997c-.157-.2722-.29968-.5524-.42744-.8395z"/><path d="m9.29883 23.4225c.25901.2339.53.4541.81187.6599l.5894-.8075c-.2537-.1853-.4977-.3836-.73084-.5942z"/><path d="m22.6895 9.9793c.2102.2336.4083.478.5933.7321l.8086-.5884c-.2054-.28196-.4253-.55316-.6588-.81245z"/><path d="m12.8945 25.5083c.3321.1082.6695.199 1.011.2719l.2085-.978c-.3071-.0656-.6106-.1472-.9092-.2446z"/><path d="m24.8053 14.1287.9784-.207c-.0723-.3417-.1625-.6793-.2703-1.0115l-.9509.3085c.0968.2988.1779.6026.2428.91z"/><path d="m24.225 12.3399.9133-.4072c-.1422-.319-.301-.6303-.4758-.9327l-.8656.5007c.1572.2721.3001.5522.4281.8392z"/><path d="m14.9375 25.9446c.3469.0364.6955.055 1.0443.0556l.0016-1c-.3143-.0005-.6283-.0172-.9409-.05z"/><path d="m8.7097 21.2808-.80931.5875c.20504.2824.42465.554.65794.8136l.74375-.6685c-.21-.2338-.40773-.4783-.59238-.7326z"/><path d="m22.692 8.57032c-.2592-.23366-.5304-.45368-.8125-.65919l-.5885.8085c.2539.18498.498.38304.7313.59338z"/><path d="m21.0035 7.34026c-.3021-.17478-.6131-.33366-.9317-.476l-.4077.91312c.2867.12811.5666.2711.8384.42838z"/><path d="m13.2234 7.43611-.3082-.95125c-.3322.10777-.6586.23294-.9777.375l.4066.91357c.287-.12774.5805-.24033.8793-.33732z"/><path d="m15.0623 7.04797-.1026-.99475c-.3472.03592-.6923.08991-1.0339.16175l.2062.97857c.3074-.06477.6179-.11335.9303-.14557z"/><path d="m17.0488 6.05444c-.3469-.03608-.6955-.05425-1.0444-.05444l-.0005 1c.3143.00019.6283.01656.9409.04906z"/><path d="m19.0938 6.4881c-.3321-.10783-.6696-.19822-1.0112-.27081l-.2076.97818c.3072.06533.6108.14669.9095.24375z"/><path d="m23.2715 21.3041.8075.59c.2058-.2819.3968-.5742.5722-.8759l-.8645-.5026c-.1579.2716-.3299.5348-.5152.7885z"/><path d="m20.4844 23.8043.4993.8665c.3024-.1744.5955-.3644.8782-.5692l-.5869-.8096c-.2545.1844-.5184.3554-.7906.5123z"/><path d="m10.9863 24.6542c.3019.1752.6128.3345.9313.4772l.4087-.9125c-.2866-.1284-.5663-.2717-.838-.4293z"/><path d="m22.0098 22.7.668.7437c.2596-.2331.507-.4795.7411-.7383l-.7417-.6707c-.2108.2331-.4336.4552-.6674.6653z"/><path d="m24.2168 19.6783.9125.4091c.1428-.3187.2688-.6446.3774-.9765l-.9504-.3106c-.0977.2984-.2111.5915-.3395.878z"/><path d="m18.7656 24.567.307.9517c.3324-.1073.659-.232.9783-.3737l-.4056-.914c-.2872.1273-.5808.2395-.8797.336z"/><path d="m7.19619 14.1188-.978-.2077c-.07247.3415-.12704.6865-.1635 1.0337l.9945.1043c.03274-.3124.08181-.623.147-.9303z"/><path d="m7 16.0002v-.0105h-1v.0105c0 .3452.01762.6901.05281 1.0335l.99475-.1023c-.03169-.3094-.04756-.6202-.04756-.9312z"/><path d="m16.9258 24.9531.1015.9949c.3472-.0356.6924-.0892 1.034-.1607l-.205-.9787c-.3074.0643-.618.1125-.9305.1445z"/><path d="m7.77747 12.3314-.913-.4081c-.14238.3189-.26795.6449-.37619.9769l.95081.3097c.09736-.2985.21031-.5918.33838-.8785z"/><path d="m7.19152 17.8613-.97863.2058c.07195.3418.16179.6796.26913 1.012l.95156-.3076c-.0966-.299-.1774-.6028-.24206-.9102z"/><path d="m24.8008 17.8908.9779.2091c.0729-.3414.1279-.6864.1647-1.0335l-.9944-.1055c-.0332.3123-.0827.6227-.1482.9299z"/><path d="m9.98133 9.30685-.66875-.74337c-.25936.23347-.50647.48022-.74031.73925l.74243.66987c.21059-.23326.43309-.45547.66663-.66575z"/><path d="m8.7213 10.7044-.80813-.5892c-.20551.2821-.39623.5746-.57137.8765l.86512.5016c.15763-.2717.32933-.5351.51438-.7889z"/><path d="m11.5047 8.20096-.5-.866c-.3023.17475-.5952.36509-.8777.57025l.5878.809c.2542-.18472.5179-.35603.7899-.51325z"/><path d="m24 16c0-1.5822-.4692-3.129-1.3482-4.4446-.8791-1.3156-2.1285-2.34093-3.5903-2.94643s-3.0704-.76393-4.6222-.45525c-1.5519.30868-2.9773 1.07061-4.0962 2.18938-1.11877 1.1189-1.8807 2.5443-2.18938 4.0962-.30868 1.5518-.15025 3.1604.45525 4.6222s1.63083 2.7112 2.94643 3.5903c1.3156.879 2.8624 1.3482 4.4446 1.3482 2.121-.0024 4.1544-.846 5.6542-2.3458s2.3434-3.5332 2.3458-5.6542zm-8 7c-1.3845 0-2.7378-.4105-3.889-1.1797-1.1511-.7692-2.0483-1.8624-2.57815-3.1415-.52982-1.2791-.66844-2.6866-.39834-4.0444.27009-1.3579.93679-2.6052 1.91579-3.5841.9789-.979 2.2262-1.6457 3.5841-1.91579 1.3578-.2701 2.7653-.13148 4.0444.39834 1.2791.52985 2.3723 1.42705 3.1415 2.57815.7692 1.1512 1.1797 2.5045 1.1797 3.889-.0021 1.8559-.7403 3.6351-2.0526 4.9474s-3.0915 2.0505-4.9474 2.0526z"/><path d="m20.5607 12.9395c-.2815-.2808-.663-.4385-1.0607-.4385-.3976 0-.7791.1577-1.0606.4385l-4.4394 4.4394-.9393-.9394c-.2813-.2813-.6628-.4393-1.0607-.4393-.3978 0-.7793.158-1.0606.4393-.2814.2814-.4394.6629-.4394 1.0607 0 .3979.158.7794.4394 1.0607l2 2c.1392.1393.3046.2498.4866.3252s.377.1142.574.1142.3921-.0388.5741-.1142.3473-.1859.4866-.3252l5.5-5.5c.1393-.1393.2498-.3046.3252-.4866s.1142-.3771.1142-.5741-.0388-.392-.1142-.574-.1859-.3474-.3252-.4867zm-.7072 1.4142-5.5 5.5c-.0937.0938-.2209.1464-.3535.1464-.1325 0-.2597-.0526-.3535-.1464l-2-2c-.092-.0941-.1432-.2207-.1424-.3524.0007-.1316.0533-.2576.1464-.3507s.2192-.1457.3508-.1464.2583.0505.3524.1425l1.2929 1.2928c.0938.0938.2209.1465.3535.1465s.2598-.0527.3536-.1465l4.7929-4.7928c.0461-.0477.1013-.0858.1623-.112s.1266-.04.193-.0406.1322.0121.1937.0372c.0614.0252.1173.0623.1642.1092.0469.047.0841.1028.1092.1643.0252.0614.0378.1272.0372.1936s-.0143.132-.0405.193c-.0263.061-.0643.1162-.1121.1623z"/><path d="m16 4c-6.61681 0-12 5.38319-12 12 0 6.6168 5.38319 12 12 12 6.6168 0 12-5.3832 12-12 0-6.61681-5.3832-12-12-12zm0 23c-6.06544 0-11-4.9346-11-11 0-6.06544 4.93456-11 11-11 6.0654 0 11 4.93456 11 11 0 6.0654-4.9346 11-11 11z"/></g></svg>