<svg fill="none" height="56" viewBox="0 0 56 56" width="56" xmlns="http://www.w3.org/2000/svg" xmlns:xlink="http://www.w3.org/1999/xlink"><clipPath id="a"><path d="m0 0h56v56h-56z"/></clipPath><g clip-path="url(#a)"><path d="m29.6714 16.5619c-1.5242-.0543-2.7768 1.1653-2.7768 2.6773l-.0149-5.0009c0-1.4796-1.1996-2.6792-2.6792-2.6792-1.3842 0-2.5232 1.05-2.6642 2.3969v-3.2899c0-1.47962-1.1995-2.67916-2.6791-2.67916s-2.6791 1.19954-2.6791 2.67916v3.5721c0-1.4796-1.1996-2.6792-2.6792-2.6792s-2.6791 1.1996-2.6791 2.6792l-.0158 17.5817-1.15097-3.5905c-.57106-1.7813-2.5174-2.7213-4.26762-2.061-1.59606.6022-2.46076 2.3303-1.98612 3.9687l3.34431 10.4836 4.1804 6.1028v8.4548h17.8607l.0149-8.2158 3.4531-5.2987v-22.3604c0-1.4527-1.1295-2.6899-2.5813-2.7415z" fill="#ffcfc5"/><path d="m29.6717 16.5617c-.4288-.0153-.8362.0703-1.2003.2349.9435.4322 1.5904 1.4076 1.5904 2.5066v22.3604l-3.4531 5.2987-.0149 8.2158h2.1913l.0149-8.2158 3.4531-5.2987v-22.3604c-.0001-1.4526-1.1296-2.6898-2.5814-2.7415z" fill="#ffac9a"/><path d="m23.2266 37.4019v4.0189c0 3.2943 2.4231 6.0224 5.5844 6.4997v3.4776h14.0274v-3.4776c3.1612-.4773 5.5843-3.2054 5.5843-6.4997v-4.0189z" fill="#8ce0ff"/><path d="m46.2309 37.4019v2.4849c0 3.2944-2.4233 6.0225-5.5844 6.4997v5.0116h2.1913v-3.4776c3.1612-.4773 5.5844-3.2054 5.5844-6.4997v-4.0189z" fill="#00acf0"/><path d="m47.113 37.3191c-.3029-2.2705-2.2458-4.0223-4.5991-4.0223-.5332 0-1.0449.091-1.5217.2564-.5584-2.346-2.6663-4.0913-5.1832-4.0913-2.1433 0-3.99 1.266-4.836 3.0905-.5285-.2092-1.1038-.3253-1.7065-.3253-2.5635 0-4.6415 2.078-4.6415 4.6414 0 .1521.0079.3022.0221.4506z" fill="#fff"/><path d="m42.514 33.2968c-.5331 0-1.0448.091-1.5215.2564-.5584-2.346-2.6663-4.0913-5.1832-4.0913-2.1433 0-3.99 1.266-4.8361 3.0905-.5284-.2091-1.1037-.3253-1.7065-.3253-.4899 0-.962.0764-1.4054.2171 2.5912.831 4.0058 2.3474 4.0058 2.3474l.6964-1.5016c.5846-1.2605 1.8587-2.075 3.2458-2.075 1.6631 0 3.0931 1.1284 3.4776 2.7441l.4488 1.8855 1.8312-.6351c.3055-.106.6241-.1597.9472-.1597 1.4068 0 2.6124 1.0245 2.8461 2.3995v.3558h1.7531v-.486c-.3031-2.2706-2.246-4.0223-4.5993-4.0223z" fill="#c2d3dd"/><path d="m43.2722 19.7334c5.2223 0 9.4559-4.2335 9.4559-9.4558s-4.2336-9.455823-9.4559-9.455823-9.4558 4.233523-9.4558 9.455823 4.2335 9.4558 9.4558 9.4558z" fill="#ff8fa5"/><path d="m43.2714.821777c-.3708 0-.7359.023667-1.0956.065193 4.7058.54334 8.3601 4.53913 8.3601 9.39063s-3.6543 8.8473-8.3601 9.3906c.3597.0416.7248.0652 1.0956.0652 5.2223 0 9.4559-4.2335 9.4559-9.4558 0-5.22227-4.2335-9.455823-9.4559-9.455823z" fill="#ff5377"/><g fill="#000"><path d="m42.5149 32.4751c-.3268 0-.6513.029-.9707.0868-.905-2.3456-3.1569-3.9217-5.734-3.9217-.9655 0-1.8988.23-2.7348.6466v-9.9834c0-1.8983-1.5135-3.4967-3.3739-3.5628-.7161-.0255-1.4037.1617-1.993.5349l-.0062-2.0373c0-1.9303-1.5705-3.5008-3.5009-3.5008-.6742 0-1.306.1894-1.8423.5204v-.5918c0-1.93031-1.5705-3.50084-3.5009-3.50084-1.9303 0-3.5009 1.57042-3.5009 3.50084v.6057c-.5386-.3384-1.1755-.5343-1.8572-.5343-1.9304 0-3.50091 1.5704-3.50091 3.5001l-.00482 5.4953 1.64353.0014.0048-5.496c0-1.0241.8331-1.8573 1.8574-1.8573 1.0241 0 1.8572.8331 1.8572 1.8573v14.498h-.5384v1.6435h13.9816v-1.6435h-1.0834v-9.497c0-.5086.2017-.9834.5678-1.3367.3658-.3531.8486-.5372 1.3582-.5195.9863.0351 1.7888.8966 1.7888 1.9204v11.1723c-.3231.3267-.6115.691-.8571 1.0881-.4263-.1052-.8636-.1583-1.3073-.1583-2.9157 0-5.305 2.296-5.4556 5.1747h-1.4067v4.8407c0 1.7808.6421 3.5014 1.808 4.8448.9966 1.1485 2.3183 1.9587 3.7765 2.3268l-.0226 5.764h-16.2204v-5.7688c1.1571.7655 3.0622 1.5505 6.0153 1.5505v-1.6435c-4.3398 0-5.8775-1.8458-6.1113-2.1657l-4.16015-6.0729-3.30388-10.3573c-.34667-1.2155.30613-2.515 1.48967-2.9614.63374-.2392 1.31842-.2087 1.9286.0859.60984.2945 1.05972.812 1.26659 1.4569l1.33387 4.1614h.5995c3.4873 0 6.3245 2.8371 6.3245 6.3244h1.6435c0-4.1155-3.1369-7.5101-7.1451-7.9234l.0084-9.6581-1.64348-.0014-.00493 5.637c-.40233-.6318-.97273-1.1412-1.66815-1.477-1.01941-.4924-2.16427-.5433-3.22334-.1436-1.9836.7484-3.07521 2.9298-2.48542 4.9662l3.38737 10.6198 4.10495 5.9923v9.0221h19.5009l.0149-3.78h14.0414v-3.6276c1.4582-.3679 2.7799-1.1781 3.7765-2.3267 1.1659-1.3435 1.808-3.064 1.808-4.8448v-4.8407h-1.4403c-.6103-2.3797-2.7804-4.105-5.2897-4.105zm-25.5142-21.8091c0-1.02408.8332-1.85734 1.8574-1.85734s1.8574.83326 1.8574 1.85734v18.0702h-3.7148zm9.0729 18.0702h-3.7146v-14.7242c.1126-.9319.8986-1.6312 1.8423-1.6312 1.0243 0 1.8574.8331 1.8574 1.8597zm3.1939 4.3127c.4831 0 .9555.09 1.4041.2675l.7214.2856.3264-.7039c.7366-1.5882 2.3423-2.6144 4.0906-2.6144 2.0963 0 3.899 1.4228 4.3838 3.4598l.2104.8839.8583-.2977c.4039-.14.8252-.2111 1.2524-.2111 1.577 0 2.9629.9739 3.537 2.3787h-20.5864c.1873-1.9327 1.8209-3.4484 3.802-3.4484zm18.334 8.372c0 2.8038-2.074 5.2346-4.8329 5.6779h-4.8313v1.6435h4.0796v1.8342h-12.3838v-1.8342h6.6607v-1.6435h-7.4123c-2.7588-.4434-4.8329-2.8741-4.8329-5.6779v-3.1972h23.5528v3.1972z"/><path d="m43.2737 0c-2.1502 0-4.2095.657072-5.9553 1.90022l.9533 1.33879c1.4658-1.04373 3.1954-1.59551 5.002-1.59551 4.7608 0 8.6341 3.87319 8.6341 8.6341 0 4.7609-3.8733 8.6341-8.6341 8.6341-4.7609 0-8.6342-3.8733-8.6342-8.6341 0-2.28032.8808-4.43112 2.4804-6.05621l-1.1714-1.15275c-1.9039 1.9344-2.9524 4.49464-2.9524 7.20906 0 5.6671 4.6106 10.2776 10.2777 10.2776s10.2776-4.6106 10.2776-10.2776c0-5.66702-4.6107-10.2777-10.2777-10.2777z"/><path d="m38.329 13.7553v-3.6422l2.2372 3.5605h1.5089v-6.8738h-1.6435v3.5706l-2.2372-3.56052-1.5089-.00043v6.94585z"/><path d="m46.3822 13.7553c1.9176 0 3.4776-1.5601 3.4776-3.4777 0-1.91767-1.56-3.4778-3.4776-3.4778-1.9177 0-3.4779 1.56013-3.4779 3.4778 0 1.9176 1.5602 3.4777 3.4779 3.4777zm0-5.31199c1.0113 0 1.8341.82284 1.8341 1.83429 0 1.0114-.8228 1.8342-1.8341 1.8342-1.0114 0-1.8343-.8228-1.8343-1.8342 0-1.01145.8227-1.83429 1.8343-1.83429z"/><path d="m41.0801 41.8557h1.6983v1.6435h-1.6983z"/></g><path d="m42.7773 40.2122h1.6983v1.6435h-1.6983z" fill="#fff"/></g></svg>