<svg fill="none" height="56" viewBox="0 0 56 56" width="56" xmlns="http://www.w3.org/2000/svg" xmlns:xlink="http://www.w3.org/1999/xlink"><clipPath id="a"><path d="m0 0h56v56h-56z"/></clipPath><g clip-path="url(#a)"><path d="m56 28c0 6.335-2.1044 12.1789-5.6525 16.87-1.1145 1.4744-3.6531.642-5.0334 1.8692-.128.1138-8.3114 1.9885-12.8035 2.9794-1.7161.3795-1.9414 6.2234-3.7603 6.2716-.2494.0065-.4998.0098-.7503.0098-7.8214 0-14.8947-3.2069-19.97516-8.3781-.96468-.9822 1.11421-4.9873.30254-6.1029-1.01938-1.3989-4.88316.0577-5.63238-1.5206-1.728125-3.6367-2.695-7.7043-2.695-11.9984s.966875-8.3617 2.695-11.9984c.75031-1.5816 1.64609-3.0822 2.66766-4.4833 3.20031-4.38814 7.64534-7.80939 12.81654-9.74642 3.056-1.146255 6.3656-1.77188 9.8208-1.77188 15.4634 0 28 12.5366 28 28z" fill="#cce3ff"/><path d="m52.8521 13.0149c-.4823 10.151-3.7515 16.5539-3.7515 16.5539h-4.305s-3.2692-6.4029-3.7516-16.5539c-.0404-.8608 1.0971-1.2086 1.5433-.4715.6409 1.0577 1.4153 2.6196 2.2083 4.8804 0 0-.6027-6.0419 1.3847-10.81832.2833-.68141 1.2523-.68141 1.5356 0 1.9873 4.77642 1.3847 10.81832 1.3847 10.81832.7919-2.2608 1.5673-3.8227 2.2083-4.8804.4462-.737 1.5837-.3893 1.5432.4715z" fill="#6ec487"/><path d="m47.7159 6.60548c-.8531-.6825-3.3567 8.04452-.7678 21.20012.1258.641.2078 1.2283.2505 1.7632h-2.403s-3.2692-6.4029-3.7516-16.5539c-.0404-.8608 1.0971-1.2086 1.5433-.4715.6409 1.0577 1.4153 2.6196 2.2083 4.8804 0 0-.6027-6.0419 1.3847-10.81832.2833-.68141 1.2523-.68141 1.5356 0z" fill="#5aaf70"/><path d="m54.025 31.4191c-.0033.4243-.0645.8586-.1892 1.2917l-.2144.7459-2.1809 7.6027-.5852 2.0387-.5086 1.7719c-1.2184 1.6122-2.6086 3.0888-4.142 4.4024-.0558.0481-.1116.0951-.1684.1421-.4244-.2843-.7493-.7131-.8969-1.2293l-4.4395-15.4744c-.8849-3.0844 1.4306-6.1578 4.6385-6.1578h3.8588c2.7573 0 4.8552 2.2695 4.8278 4.8661z" fill="#ff9648"/><g fill="#f48337"><path d="m46.593 48.9333c-.128.1137-.2581.2275-.3883.3391-.0558.0481-.1116.0951-.1684.1421-.4244-.2843-.7493-.7131-.8969-1.2293l-4.4395-15.4744c-.8849-3.0844 1.4306-6.1578 4.6386-6.1578h1.1845c-1.2381 0-2.1317 3.0734-1.7905 6.1578l1.7139 15.4744c.0306.2778.081.5304.1466.7481z"/><path d="m54.0254 31.4194c-.0033.4243-.0645.8586-.1892 1.2917l-.2144.7459h-3.9911c-.5633 0-1.0194-.4561-1.0194-1.0183 0-.2821.1138-.5359.2986-.7207.1849-.1849.4386-.2986.7208-.2986z"/><path d="m48.483 37.6321h-5.0029c-.5629 0-1.0192-.4563-1.0192-1.0191 0-.5629.4563-1.0192 1.0192-1.0192h5.0029c.5629 0 1.0192.4563 1.0192 1.0192-.0001.5629-.4563 1.0191-1.0192 1.0191z"/><path d="m51.4413 41.0597-.5852 2.0387h-2.8875c-.5633 0-1.0194-.4561-1.0194-1.0193 0-.2822.1138-.536.2986-.7208.1849-.1849.4386-.2986.7208-.2986z"/></g><path d="m39.1325 5.71044v37.97176c0 2.1754-1.7642 3.9396-3.9397 3.9396h-27.16764c-2.17438-2.2137-3.98344-4.7873-5.32985-7.6234v-34.28796c0-2.17546 1.76422-3.93859 3.93969-3.93859h28.5578c2.1755 0 3.9397 1.76313 3.9397 3.93859z" fill="#cb8375"/><path d="m9.30266 1.77185c-2.17657 0-3.93969 1.76313-3.93969 3.93859v37.97176c0 .245-.00328.5107-.00656.7896-1.01938-1.3989-1.91188-2.8951-2.6611-4.4734v-34.28796c0-2.17546 1.76313-3.93859 3.9386-3.93859z" fill="#bf6a54"/><path d="m33.9194 43.2866h-26.0104c-.97661 0-1.76838-.7918-1.76838-1.7684v-30.8736c0-.97661.79177-1.76838 1.76838-1.76838h26.0104c.9766 0 1.7683.79177 1.7683 1.76838v30.8736c-.0001.9767-.7917 1.7684-1.7683 1.7684z" fill="#f8f6f7"/><path d="m10.0967 43.2864h-2.18748c-.97672 0-1.7686-.7918-1.7686-1.7675v-30.8743c0-.97675.79188-1.76862 1.7686-1.76862h2.18748c-.9767 0-1.76858.79187-1.76858 1.76862v30.8743c-.0001.9757.79177 1.7675 1.76858 1.7675z" fill="#dedaed"/><path d="m28.0932 14.0025h-14.9717c-1.9506 0-3.53752-1.5869-3.53752-3.5376v-2.74631c0-1.95059 1.58692-3.53762 3.53752-3.53762h14.9718c1.9506 0 3.5375 1.58692 3.5375 3.53762v2.74641c-.0001 1.9506-1.587 3.5375-3.5376 3.5375zm-14.9717-7.63403c-.7444 0-1.35.60572-1.35 1.35012v2.74641c0 .7444.6056 1.3501 1.35 1.3501h14.9718c.7444 0 1.35-.6057 1.35-1.3501v-2.74641c0-.7444-.6056-1.35012-1.35-1.35012z" fill="#ffe252"/><path d="m30.4215 40.3606h-14.4902c-.6686 0-1.2106-.542-1.2106-1.2106s.542-1.2105 1.2106-1.2105h14.4902c.6686 0 1.2105.5419 1.2105 1.2105s-.5419 1.2106-1.2105 1.2106z" fill="#5b565f"/><path d="m35.6866 44.5199c-.4899 0-.936-.3317-1.0602-.8287l-2.0817-8.3212c-.1466-.5859.2096-1.1799.7956-1.3265.5857-.1463 1.1798.2096 1.3265.7956l2.0817 8.3212c.1466.586-.2097 1.18-.7956 1.3265-.089.0224-.1784.0331-.2663.0331z" fill="#5aaf70"/><path d="m47.0737 44.9324c-.0339 1.529-.338 2.9903-.8684 4.34-4.7185 4.0425-10.7975 6.5428-17.4552 6.7178-4.0808-2.0377-6.9059-6.2125-7.012-11.0578-.0875-4.0163 3.1084-7.4266 7.1258-7.4441 1.6548-.0077 3.1784.5469 4.3947 1.482.6759.5196 1.6187.5196 2.2946 0 1.2152-.9351 2.7399-1.4897 4.3936-1.482 4.0174.0175 7.2144 3.4278 7.1269 7.4441z" fill="#ff5a76"/><path d="m34.0614 55.3416c-1.7161.3795-3.4924.6005-5.3113.6486-4.0808-2.0377-6.9059-6.2125-7.012-11.0578-.0875-4.0163 3.1084-7.4266 7.1258-7.4441 1.1812-.0055 2.2957.2756 3.279.7777-2.3953 1.2326-4.0108 3.7942-3.9484 6.6664.0951 4.3771 2.4117 8.2086 5.8669 10.4092z" fill="#f24469"/><path d="m31.8468 41.6683c-1.7784 1.7773-4.2962 2.3625-6.5636 1.7576-.6048-2.2662-.0196-4.7851 1.7588-6.5625 1.7784-1.7784 4.2962-2.3636 6.5625-1.7587.6048 2.2673.0208 4.7851-1.7577 6.5636z" fill="#6ec487"/><path d="m33.6045 35.1047-8.3213 8.3212c-.6048-2.2662-.0196-4.7851 1.7588-6.5625 1.7784-1.7784 4.2962-2.3636 6.5625-1.7587z" fill="#5aaf70"/><path d="m10.4241 28.5025c1.0767 0 1.9495-.8729 1.9495-1.9495 0-1.0767-.8728-1.9495-1.9495-1.9495-1.07667 0-1.94949.8728-1.94949 1.9495 0 1.0766.87282 1.9495 1.94949 1.9495z" fill="#ff5a76"/><path d="m10.6995 22.5654c1.0767 0 1.9495-.8728 1.9495-1.9495 0-1.0766-.8728-1.9495-1.9495-1.9495-1.07668 0-1.9495.8729-1.9495 1.9495 0 1.0767.87282 1.9495 1.9495 1.9495z" fill="#ff5a76"/><path d="m10.4241 34.8009c1.0767 0 1.9495-.8728 1.9495-1.9495s-.8728-1.9495-1.9495-1.9495c-1.07667 0-1.94949.8728-1.94949 1.9495s.87282 1.9495 1.94949 1.9495z" fill="#ff5a76"/><path d="m10.4241 41.0995c1.0767 0 1.9495-.8728 1.9495-1.9495s-.8728-1.9495-1.9495-1.9495c-1.07667 0-1.94949.8728-1.94949 1.9495s.87282 1.9495 1.94949 1.9495z" fill="#ff5a76"/><path d="m30.4215 27.7637h-14.4902c-.6686 0-1.2106-.542-1.2106-1.2106s.542-1.2106 1.2106-1.2106h14.4902c.6686 0 1.2105.542 1.2105 1.2106s-.5419 1.2106-1.2105 1.2106z" fill="#5b565f"/><path d="m30.6969 21.8266h-14.4902c-.6687 0-1.2106-.5419-1.2106-1.2105s.5419-1.2106 1.2106-1.2106h14.4902c.6686 0 1.2105.542 1.2105 1.2106s-.5419 1.2105-1.2105 1.2105z" fill="#5b565f"/><path d="m30.4215 34.0621h-14.4902c-.6686 0-1.2106-.5419-1.2106-1.2105 0-.6687.542-1.2106 1.2106-1.2106h14.4902c.6686 0 1.2105.5419 1.2105 1.2106 0 .6685-.5419 1.2105-1.2105 1.2105z" fill="#5b565f"/></g></svg>