<svg fill="none" height="56" viewBox="0 0 56 56" width="56" xmlns="http://www.w3.org/2000/svg"><path d="m15.9942 34.0168c0 1.8689-1.3975 3.4426-3.2532 3.6636l-5.31225.6326c-3.61375.4303-6.335 3.4947-6.335 7.1341v6.5238h38.06245v-6.5238c0-3.6394-2.7212-6.7038-6.335-7.1341l-5.3122-.6325c-1.8557-.221-3.2532-1.7947-3.2532-3.6635h-8.2616z" fill="#6d92ac"/><path d="m14.4717 37.2604c1.3905 1.5491 3.4085 2.5237 5.654 2.5237 2.2456 0 4.2636-.9745 5.6541-2.5238 0 0 .0524-.0581.1421-.1586-1.0096-.6633-1.6654-1.8047-1.6654-3.0849h-8.2615c0 1.3142-.6916 2.4817-1.747 3.1362.1434.0689.2237.1074.2237.1074z" fill="#ffd0c7"/><path d="m30.2013 22.8429c1.1818-1.8989 1.8667-4.1543 1.8667-6.5737 0-6.75989-5.3467-12.2399-11.9422-12.2399s-11.94221 5.48001-11.94221 12.2399c0 2.4194.68491 4.6748 1.86681 6.5738z" fill="#c68a65"/><path d="m30.1993 18.7633c-.0294-.0448-.0575-.0905-.0875-.1348-4.9489-.0218-9.4602-1.8947-12.8782-4.9619-2.9918.7374-5.5421 2.5933-7.1848 5.0978v5.9752c0 5.5645 4.5109 10.0752 10.0752 10.0752 5.5645 0 10.0752-4.5108 10.0752-10.0752v-5.9763z" fill="#ffd0c7"/><path d="m48.1145 42.6197-2.8723-1.6583 4.7459-10.05c.6447-1.3654 2.3183-1.8886 3.6259-1.1336 1.3075.7549 1.6912 2.4659.8312 3.7069z" fill="#33d6f5"/><path d="m51.4231 40.2089-3.8252-3.8252c-2.4592-2.4592-6.4464-2.4592-8.9055 0l-3.8252 3.8252z" fill="#fff"/><path d="m54.9065 40.2089c0 6.4959-5.2659 11.7618-11.7618 11.7618s-11.7619-5.2659-11.7619-11.7618z" fill="#ff7d97"/><g stroke="#000" stroke-linecap="round" stroke-linejoin="round" stroke-miterlimit="10" stroke-width="2"><path d="m30.1993 18.7633c-.0294-.0448-.0575-.0905-.0875-.1348-4.9489-.0218-9.4602-1.8947-12.8782-4.9619-2.9918.7374-5.5421 2.5933-7.1848 5.0978v5.9752c0 5.5645 4.5109 10.0752 10.0752 10.0752 5.5645 0 10.0752-4.5108 10.0752-10.0752v-5.9763z"/><path d="m30.2013 22.8429c1.1818-1.8989 1.8667-4.1543 1.8667-6.5737 0-6.75989-5.3467-12.2399-11.9422-12.2399s-11.94221 5.48001-11.94221 12.2399c0 2.4194.68491 4.6748 1.86681 6.5738"/><path d="m35.6364 39.2662c-.839-.498-1.7912-.8314-2.8151-.9533l-5.3122-.6325c-1.8558-.221-3.2532-1.7947-3.2532-3.6636"/><path d="m25.0469 51.9707h18.0975"/><path d="m15.9942 34.0168c0 1.8689-1.3975 3.4426-3.2532 3.6636l-5.31225.6326c-3.61375.4303-6.335 3.4947-6.335 7.1341v6.5238h14.10935"/><path d="m25.7788 37.2604c-1.3905 1.5492-3.4085 2.5237-5.6541 2.5237-2.2455 0-4.2635-.9745-5.654-2.5237"/><path d="m39.873 23.3363 6.4438 6.0949"/><path d="m46.3168 23.3363-6.4438 6.0949"/><path d="m26.575 26.3652c-1.542 1.3599-1.6898 3.7123-.3299 5.2544"/><path d="m13.6758 26.3652c1.5421 1.3599 1.6898 3.7123.33 5.2544"/><path d="m19.3594 28.0068h1.5329"/><path d="m47.5215 36.1376 2.4679-5.2262c.6448-1.3654 2.3183-1.8886 3.6259-1.1336 1.3076.7549 1.6913 2.4659.8313 3.7069l-3.9231 5.661"/><path d="m51.2735 40.0607-3.677-3.677c-2.4592-2.4592-6.4463-2.4592-8.9055 0l-3.7769 3.7769"/><path d="m54.9065 40.2089c0 6.4959-5.2659 11.7618-11.7618 11.7618s-11.7619-5.2659-11.7619-11.7618z"/></g><circle cx="15.9688" cy="21.7656" fill="#000" r="1.09375"/><circle cx="24.2812" cy="21.7656" fill="#000" r="1.09375"/></svg>