<svg fill="none" height="32" viewBox="0 0 32 32" width="32" xmlns="http://www.w3.org/2000/svg"><g fill="#46bf98"><path d="m29.2152 28.9194h-25.86167c-.30401 0-.55275.2488-.55275.5528s.24874.5527.55275.5527h25.86167c.304 0 .5527-.2487.5527-.5527s-.2487-.5528-.5527-.5528z"/><path d="m3.98243 20.9463c-.30401 0-.55274.2487-.55274.5527v5.6795c0 .304.24873.5528.55274.5528h3.91068c.30402 0 .55275-.2488.55275-.5528v-5.6795c0-.304-.24873-.5527-.55275-.5527zm3.35794 5.6864h-2.80519v-4.574h2.80519z"/><path d="m10.5664 19.0532c-.304 0-.5527.2488-.5527.5528v7.5726c0 .304.2487.5527.5527.5527h3.9107c.304 0 .5527-.2487.5527-.5527v-7.5726c0-.304-.2487-.5528-.5527-.5528zm3.358 7.5796h-2.8052v-6.4672h2.8052z"/><path d="m17.4219 15.999c-.304 0-.5528.2488-.5528.5528v10.6334c0 .304.2488.5528.5528.5528h3.9107c.304 0 .5527-.2488.5527-.5528v-10.6334c0-.304-.2487-.5528-.5527-.5528zm3.3579 10.6335h-2.8052v-9.528h2.8052z"/><path d="m23.9297 10.2022v16.9831c0 .304.2487.5527.5527.5527h3.9107c.304 0 .5528-.2487.5528-.5527v-16.9831c0-.30405-.2488-.55279-.5528-.55279h-3.9107c-.304 0-.5527.24183-.5527.55279zm1.1055.5527h2.8052v15.8776h-2.8052z"/><path d="m3.88019 18.9703h.03455l.54584-.0345c4.82271-.311 9.45882-1.9485 13.41102-4.726 3.7932-2.667 6.8057-6.28059 8.7472-10.48147l.6633 1.74806c.0829.2211.2971.35929.5182.35929.0622 0 .1313-.01382.1935-.03455.2832-.11055.4283-.42838.3178-.71166l-1.1746-3.12992c-.0553-.13819-.1589-.24874-.2902-.31092-.1313-.06219-.2833-.06219-.4215-.01382l-3.1299 1.1884c-.2833.11055-.4284.42838-.3178.71166.1105.28329.4284.42838.7116.31783l2.0107-.76693c-1.8587 4.09723-4.7744 7.62103-8.4571 10.21203-3.7863 2.66-8.22898 4.2285-12.85132 4.5256l-.54584.0345c-.30401.0207-.53892.2833-.51819.5873.02072.2971.26946.5251.55274.5251z"/></g></svg>