<svg fill="none" height="32" viewBox="0 0 32 32" width="32" xmlns="http://www.w3.org/2000/svg" xmlns:xlink="http://www.w3.org/1999/xlink"><clipPath id="a"><path d="m0 0h32v32h-32z"/></clipPath><g clip-path="url(#a)" fill="#ff5b69"><path d="m24.5338 0h-17.06661c-.88213 0-1.6.717875-1.6 1.6 0 .88213.71787 1.6 1.6 1.6h17.06671c.8821 0 1.6-.71787 1.6-1.6 0-.882125-.718-1.6-1.6001-1.6zm0 2.13331h-17.06661c-.29388 0-.53331-.23893-.53331-.53331s.23943-.53331.53331-.53331h17.06671c.2938 0 .5333.23893.5333.53331s-.2395.53331-.5334.53331z"/><path d="m24.5338 28.7998h-17.06661c-.88213 0-1.6.7179-1.6 1.6s.71787 1.6 1.6 1.6h17.06671c.8821 0 1.6-.7179 1.6-1.6s-.718-1.6-1.6001-1.6zm0 2.1333h-17.06661c-.29388 0-.53331-.2389-.53331-.5333s.23943-.5333.53331-.5333h17.06671c.2938 0 .5333.2389.5333.5333s-.2395.5333-.5334.5333z"/><path d="m19.8006 14.0202c2.7082-2.7083 4.1994-6.30884 4.1994-10.13815v-1.21544c0-.29493-.2389-.53331-.5333-.53331h-14.93339c-.29437 0-.53331.23838-.53331.53331v1.21544c0 3.82988 1.49119 7.42985 4.1989 10.13815l.536.536c.3803.3802.5984.9061.5984 1.4437s-.2181 1.0635-.5979 1.4438l-.536.536c-2.70821 2.7082-4.1994 6.3082-4.1994 10.1381v1.2154c0 .295.23894.5333.53331.5333h14.93329c.2944 0 .5333-.2383.5333-.5333v-1.2154c0-3.8293-1.4911-7.4299-4.1994-10.1381l-.536-.536c-.3856-.3856-.5979-.8982-.5979-1.4438s.2123-1.0581.5979-1.4437zm-1.2902-.2182c-.5872.5867-.9104 1.367-.9104 2.1979 0 .831.3232 1.6112.9104 2.1979l.536.536c2.5067 2.5067 3.8869 5.8394 3.8869 9.384v.6821h-13.86661v-.6821c0-3.5451 1.38021-6.8773 3.88641-9.384l.536-.536c.5877-.5867.9109-1.3675.9109-2.1979s-.3232-1.6112-.9104-2.1979l-.536-.536c-2.5067-2.5066-3.88691-5.83945-3.88691-9.38395v-.68212h13.86671v.68212c0 3.54456-1.3803 6.87735-3.887 9.38395z"/><path d="m20.5077 8.98487c-.0538-.13543-.2373-.45175-.7738-.45175-2.7712 0-4.0059-.59362-4.4955-.94775-.6107-.44212-1.3942-.55787-2.0977-.30881-.6714.23731-1.1631.76531-1.3482 1.448-.048.17763-.0566.29281-.0566.29281-.008.10507.015.21869.0667.31094.4998.88589 1.0763 1.82029 1.9061 2.65009l.5355.536c.7888.7878 1.2229 1.8363 1.2229 2.952 0 .295.239.5333.5333.5333.2944 0 .5333-.2383.5333-.5333 0-1.1152.4342-2.1637 1.2224-2.952l.5366-.5365c.1317-.1312.3034-.2933.4922-.4704 1.3788-1.2965 1.9586-1.92744 1.7228-2.52263zm-2.4543 1.74563c-.1973.1861-.3777.3557-.5152.4933l-.5366.5366c-.4144.4138-.7504.8853-1.0016 1.3962-.2512-.5109-.5872-.9824-1.0016-1.3962l-.5355-.536c-.655-.6555-1.1344-1.37709-1.6331-2.24696.1318-.44532.4731-.62669.6667-.6955.3722-.13175.7899-.06932 1.1162.1675.6795.49175 2.0192 1.07143 4.5857 1.14293-.3296.37119-.8469.85813-1.145 1.13813z"/><path d="m21.8294 27.1583c-.1339-1.7291-.8272-2.447-1.6293-3.279-.1083-.1125-.2213-.2293-.3371-.353-.6699-.7158-1.616-1.1264-2.5968-1.1264h-2.5339c-.9802 0-1.9269.4107-2.5968 1.1264-.1158.1237-.2283.24-.3366.3525-.8027.832-1.496 1.5504-1.6293 3.28-.0117.1483.0395.2944.1403.4038.1013.1088.2427.1707.3914.1707h10.5963c.1482 0 .2901-.0619.3914-.1712.1009-.1094.1516-.2561.1404-.4038zm-10.5206-.4917c.1808-.9312.6118-1.3771 1.2581-2.0469.112-.1163.2283-.2374.3478-.3649.4688-.5013 1.1312-.7882 1.8176-.7882h2.5339c.6869 0 1.3493.2874 1.8181.7877.12.1291.2363.2491.3488.3659.6459.6699 1.0763 1.1158 1.2577 2.0464z"/><path d="m15.9845 17.0669c-.2944 0-.5333.2384-.5333.5333v.5333c0 .295.2389.5333.5333.5333s.5333-.2383.5333-.5333v-.5333c0-.2949-.2389-.5333-.5333-.5333z"/><path d="m15.9845 19.7334c-.2944 0-.5333.2384-.5333.5333v.5333c0 .295.2389.5333.5333.5333s.5333-.2383.5333-.5333v-.5333c0-.2949-.2389-.5333-.5333-.5333z"/></g></svg>