<svg width="108" height="24" viewBox="0 0 108 24" fill="none" xmlns="http://www.w3.org/2000/svg">
<g clip-path="url(#clip0_548_10247)">
<path d="M72.7296 12.0068C72.4917 14.2902 71.0669 17.0559 68.3735 17.9474C67.0652 18.3816 65.8736 18.2331 65.1997 18.0936C66.8134 17.5839 67.8371 16.7816 68.3735 16.2902C68.7046 15.9839 69.1617 15.5588 69.5698 14.8685C70.3183 13.6022 70.365 12.3702 70.3486 11.8034C70.3323 11.2571 70.2857 10.1165 69.4951 8.97135C69.2549 8.62392 68.5973 7.76678 67.3987 7.25478C66.4822 6.86392 65.6754 6.85707 65.244 6.85935C64.563 6.85935 64.0733 6.98278 63.8821 7.03535C63.3761 7.17478 62.961 7.37821 62.968 7.40107C62.9796 7.43307 63.6839 7.04678 64.668 7.00564C64.8429 6.99878 65.6707 6.97592 66.5988 7.38049C66.8227 7.47878 67.1469 7.62278 67.4966 7.91535C67.8977 8.25135 68.117 8.60335 68.2755 8.86164C68.4084 9.07878 68.6067 9.40792 68.7396 9.88107C68.7676 9.98164 68.9891 10.8022 68.7885 11.6045C68.7209 11.8788 68.6113 12.1096 68.602 12.1325C68.5577 12.2285 68.4761 12.3862 68.3175 12.6102C68.1683 12.8205 67.9141 13.1405 67.513 13.4971C67.5806 13.3554 67.6459 13.2159 67.7135 13.0742C67.4267 13.3325 67.0559 13.5062 66.6455 13.5474C66.1674 14.0205 65.5052 14.3131 64.7729 14.3131C63.3178 14.3131 62.1355 13.1565 62.1355 11.7279C62.1355 10.2994 63.3154 9.14278 64.7729 9.14278C65.5052 9.14278 66.1674 9.43535 66.6455 9.90849C67.2425 9.96792 67.7555 10.3039 68.0493 10.7839C67.9537 10.2079 67.7159 9.66621 67.3404 9.21592C66.1581 7.79649 64.085 7.85135 62.7908 8.40907C62.5646 8.50507 61.3123 9.06964 60.7853 10.3451C60.4308 11.1999 60.5474 12.0251 60.741 13.3828C60.8319 14.0251 60.9578 14.5485 61.0558 14.9096C60.8249 14.7268 60.5241 14.4502 60.2466 14.0594C58.936 12.2056 59.3581 9.42392 60.5614 7.56107C60.7759 7.22735 62.4853 4.67878 65.7547 4.47992C68.9331 4.28792 70.9176 6.47764 71.1718 6.76792C73.0117 8.87078 72.7972 11.3531 72.7296 12.0045V12.0068Z" fill="url(#paint0_linear_548_10247)"/>
<path d="M64.773 2.56445C59.6101 2.56445 55.4219 6.66731 55.4219 11.7302C55.4219 16.793 59.6077 20.8959 64.773 20.8959C69.9383 20.8959 74.1242 16.793 74.1242 11.7302C74.1242 6.66731 69.9383 2.56445 64.773 2.56445ZM66.6386 11.7302C66.6386 12.4433 66.2212 13.0605 65.6125 13.3622C65.3607 13.4879 65.0739 13.5587 64.773 13.5587C63.7423 13.5587 62.9075 12.7405 62.9075 11.7302C62.9075 10.7199 63.7423 9.9016 64.773 9.9016C65.0762 9.9016 65.3607 9.97245 65.6125 10.0982C66.2212 10.3999 66.6386 11.017 66.6386 11.7302ZM62.9448 17.7599C62.5996 17.689 60.3003 17.1702 58.9198 15.017C58.7356 14.729 58.0477 13.6022 57.9707 12.009C57.9194 10.921 58.1759 10.0867 58.2552 9.84217C58.4301 9.3096 58.661 8.8776 58.8685 8.48674C59.118 8.02045 59.2719 7.80788 59.3582 7.70045C59.6264 7.35302 59.9016 7.10617 60.1021 6.94845C59.6777 7.38502 58.8242 8.38388 58.4861 9.91074C58.2062 11.1702 58.4091 12.1873 58.5001 12.5667C58.8638 14.0845 59.7313 15.0102 59.9226 15.2067C60.228 15.5245 60.9743 16.2742 62.2265 16.6445C63.7959 17.1062 65.1088 16.6582 65.5193 16.5119C65.939 16.3633 66.8042 15.9953 67.5854 15.1907C67.8326 14.9347 68.0145 14.697 68.1404 14.5165C67.9725 14.6925 66.3984 16.2833 64.218 15.9679C63.9125 15.9245 62.7419 15.737 61.8231 14.7359C61.6132 14.5073 60.6991 13.4536 60.8437 11.9336C60.9486 10.825 61.5596 10.0867 61.8231 9.8056C62.0703 9.54274 62.9891 8.64674 64.3976 8.62388C64.5818 8.6216 65.6382 8.61931 66.508 9.29817C66.7552 9.49245 66.9767 9.73017 66.9651 9.74617C66.9487 9.76445 66.5803 9.35074 65.9926 9.0856C65.2231 8.74045 64.4815 8.83874 64.2413 8.87302C64.0221 8.90502 63.6001 8.96902 63.1337 9.23874C62.5577 9.57245 62.2638 10.0182 62.1239 10.2353C61.9887 10.4433 61.7158 10.8822 61.6459 11.5199C61.6295 11.6593 61.5666 12.3382 61.9304 13.0902C62.2009 13.6502 62.5763 13.9725 62.6719 14.0502C63.08 14.3907 63.4811 14.5233 63.698 14.5942C63.8496 14.6422 64.5701 14.8639 65.4936 14.6902C66.3308 14.5325 66.8811 14.137 67.2076 13.897C67.5271 13.6616 68.0145 13.2936 68.3596 12.6353C68.4086 12.5393 68.4529 12.4479 68.4878 12.3587C68.6044 12.073 68.6487 11.8445 68.6674 11.7462C68.77 11.1679 68.6721 10.7153 68.5998 10.3953C68.4016 9.51531 67.9678 8.93245 67.8582 8.78845C67.6903 8.56902 67.3032 8.0776 66.6083 7.7096C65.7734 7.26845 64.9946 7.27531 64.5585 7.28445C64.2134 7.29131 63.5697 7.3096 62.8375 7.64331C61.9723 8.03645 61.4966 8.63302 61.2518 8.94845C61.0302 9.23417 60.6058 9.7896 60.4286 10.6125C60.3027 11.1999 60.3423 11.7302 60.3773 12.1599C60.4029 12.4845 60.4449 12.7542 60.4822 12.953C60.3446 12.5759 60.1861 12.0273 60.1371 11.353C60.0368 9.93588 60.4916 8.84788 60.7201 8.37474C60.9463 7.91074 61.6086 6.60331 63.1593 5.77817C63.4345 5.63188 64.5515 5.06731 66.0929 5.1336C67.2123 5.17931 68.0518 5.53817 68.4738 5.74845C68.8889 5.95645 69.8124 6.48445 70.554 7.52445C71.7013 9.13131 71.6127 10.8387 71.5707 11.4422C71.4611 13.0879 70.7405 14.2856 70.2974 14.889C69.1944 16.3999 67.7369 17.065 66.8811 17.3667C66.6969 17.4307 66.5406 17.4787 66.4217 17.5153C65.7478 17.7165 64.5049 18.0753 62.9494 17.7507L62.9448 17.7599Z" fill="url(#paint1_linear_548_10247)"/>
<path d="M64.7737 13.0401C65.5117 13.0401 66.1099 12.4537 66.1099 11.7304C66.1099 11.007 65.5117 10.4207 64.7737 10.4207C64.0357 10.4207 63.4375 11.007 63.4375 11.7304C63.4375 12.4537 64.0357 13.0401 64.7737 13.0401Z" fill="url(#paint2_linear_548_10247)"/>
<path d="M64.771 12.2102C65.0414 12.2102 65.2607 11.9953 65.2607 11.7302C65.2607 11.4651 65.0414 11.2502 64.771 11.2502C64.5005 11.2502 64.2812 11.4651 64.2812 11.7302C64.2812 11.9953 64.5005 12.2102 64.771 12.2102Z" fill="white"/>
<path d="M0 0.205811H2.28532V7.02181C2.82633 6.34981 3.31371 5.87667 3.74513 5.60467C4.48202 5.13152 5.39848 4.8961 6.49917 4.8961C8.46967 4.8961 9.80589 5.57267 10.5101 6.92352C10.8902 7.66181 11.0815 8.68581 11.0815 9.99552V18.5418H8.73318V10.1464C8.73318 9.1681 8.60726 8.45038 8.35308 7.99552C7.93799 7.26638 7.15911 6.90067 6.01878 6.90067C5.07201 6.90067 4.21152 7.22067 3.44197 7.85838C2.67242 8.4961 2.28765 9.70295 2.28765 11.479V18.5441H0V0.205811Z" fill="#2A334C"/>
<path d="M22.9499 5.21826H25.4755C25.1536 6.07312 24.4401 8.02283 23.3301 11.0674C22.4999 13.3577 21.8073 15.2228 21.2499 16.6674C19.9324 20.064 19.0019 22.1371 18.4609 22.8823C17.9199 23.6274 16.9895 24 15.6719 24C15.3501 24 15.1029 23.9885 14.9303 23.9634C14.7578 23.9383 14.5432 23.8925 14.2891 23.8263V21.7874C14.6855 21.8948 14.9723 21.9611 15.1495 21.9863C15.3268 22.0114 15.483 22.0228 15.6183 22.0228C16.0404 22.0228 16.3505 21.9543 16.5487 21.8171C16.7469 21.68 16.9148 21.5131 17.0501 21.3143C17.0921 21.248 17.2436 20.9097 17.5048 20.2971C17.766 19.6845 17.9572 19.2297 18.0762 18.9325L13.0508 5.21826H15.6393L19.2818 16.0685L22.9499 5.21826Z" fill="#2A334C"/>
<path d="M27.2578 5.28008H29.4918V7.04694C29.9489 6.44123 30.4503 5.97266 30.9936 5.64123C31.7655 5.14294 32.6726 4.8938 33.7173 4.8938C35.2611 4.8938 36.5717 5.47208 37.649 6.62866C38.7264 7.78523 39.2651 9.4378 39.2651 11.5864C39.2651 14.4892 38.4885 16.5624 36.9331 17.8058C35.949 18.5944 34.8017 18.9875 33.4935 18.9875C32.4651 18.9875 31.6046 18.7681 30.9073 18.3292C30.4992 18.0801 30.0445 17.6527 29.5431 17.0469V23.8515H27.2578V5.28008ZM35.8511 15.7212C36.56 14.8458 36.9145 13.5384 36.9145 11.7967C36.9145 10.7361 36.7582 9.82408 36.4434 9.06066C35.8487 7.59323 34.7621 6.85951 33.1833 6.85951C31.6046 6.85951 30.5086 7.63437 29.9232 9.18637C29.6084 10.0161 29.4522 11.0698 29.4522 12.3452C29.4522 13.3738 29.6084 14.2492 29.9232 14.9692C30.5179 16.3452 31.6046 17.0332 33.1833 17.0332C34.2537 17.0332 35.1422 16.5967 35.8511 15.7212Z" fill="#2A334C"/>
<path d="M41.9023 5.21837H44.0734V7.10866C44.717 6.32923 45.3979 5.76923 46.1162 5.42866C46.8344 5.08809 47.6343 4.91895 48.5158 4.91895C50.4443 4.91895 51.7479 5.57723 52.4241 6.89609C52.7973 7.61837 52.9815 8.64923 52.9815 9.99323V18.5395H50.6588V10.1441C50.6588 9.33037 50.5353 8.67666 50.2904 8.17837C49.8846 7.34866 49.1477 6.93495 48.082 6.93495C47.541 6.93495 47.0956 6.9898 46.7505 7.09723C46.1232 7.28009 45.5752 7.64352 45.1018 8.19209C44.7217 8.63094 44.4745 9.0858 44.3602 9.55437C44.246 10.0229 44.19 10.6927 44.19 11.5635V18.5418H41.9047V5.21837H41.9023Z" fill="#2A334C"/>
<path d="M76.5664 16.5052L84.6373 6.95321H77.1634V4.95093H87.7085V6.7795L79.6889 16.2698H87.9487V18.2721H76.5664V16.5052Z" fill="#2A334C"/>
<path d="M90.5742 0H92.8968V2.53714H90.5742V0ZM90.5742 5.01257H92.8968V18.272H90.5742V5.01257Z" fill="#2A334C"/>
<path d="M106.196 6.28102C107.396 7.42388 107.998 9.10617 107.998 11.3256C107.998 13.545 107.469 15.2456 106.41 16.6445C105.351 18.0433 103.71 18.745 101.483 18.745C99.6264 18.745 98.1526 18.1256 97.0589 16.8867C95.9676 15.6479 95.4219 13.9839 95.4219 11.897C95.4219 9.65931 95.9979 7.87874 97.1475 6.55302C98.2972 5.22731 99.8433 4.56445 101.786 4.56445C103.525 4.56445 104.995 5.13588 106.196 6.27874V6.28102ZM104.778 15.1336C105.335 14.0113 105.613 12.7633 105.613 11.3873C105.613 10.1439 105.412 9.1336 105.011 8.35645C104.374 7.13131 103.278 6.51874 101.723 6.51874C100.342 6.51874 99.3396 7.03988 98.7123 8.08445C98.085 9.12902 97.7702 10.3862 97.7702 11.8605C97.7702 13.3347 98.0826 14.457 98.7123 15.401C99.3396 16.345 100.335 16.8182 101.7 16.8182C103.197 16.8182 104.223 16.2582 104.78 15.1359L104.778 15.1336Z" fill="#2A334C"/>
</g>
<defs>
<linearGradient id="paint0_linear_548_10247" x1="61.3543" y1="14.9531" x2="71.8563" y2="6.89725" gradientUnits="userSpaceOnUse">
<stop offset="0.06" stop-color="#02BBAE"/>
<stop offset="0.07" stop-color="#1AC2B3"/>
<stop offset="0.09" stop-color="#3FCCBB"/>
<stop offset="0.12" stop-color="#5FD5C2"/>
<stop offset="0.14" stop-color="#7ADDC8"/>
<stop offset="0.18" stop-color="#90E4CD"/>
<stop offset="0.21" stop-color="#A1E9D1"/>
<stop offset="0.26" stop-color="#ADECD4"/>
<stop offset="0.32" stop-color="#B4EED5"/>
<stop offset="0.49" stop-color="#B6EFD6"/>
<stop offset="0.98" stop-color="white"/>
</linearGradient>
<linearGradient id="paint1_linear_548_10247" x1="55.9862" y1="14.8639" x2="73.4786" y2="8.36895" gradientUnits="userSpaceOnUse">
<stop offset="0.22" stop-color="#2A334C"/>
<stop offset="1" stop-color="#55BAB0"/>
</linearGradient>
<linearGradient id="paint2_linear_548_10247" x1="63.7536" y1="12.5736" x2="65.7621" y2="10.8412" gradientUnits="userSpaceOnUse">
<stop stop-color="#27354E" stop-opacity="0.5"/>
<stop offset="0.07" stop-color="#3C5062" stop-opacity="0.58"/>
<stop offset="0.19" stop-color="#5B7980" stop-opacity="0.69"/>
<stop offset="0.32" stop-color="#759D9A" stop-opacity="0.78"/>
<stop offset="0.44" stop-color="#8BBAAF" stop-opacity="0.86"/>
<stop offset="0.57" stop-color="#9CD0C0" stop-opacity="0.92"/>
<stop offset="0.7" stop-color="#A8E0CB" stop-opacity="0.97"/>
<stop offset="0.84" stop-color="#AFE9D2" stop-opacity="0.99"/>
<stop offset="1" stop-color="#B2EDD5"/>
</linearGradient>
<clipPath id="clip0_548_10247">
<rect width="108" height="24" fill="white"/>
</clipPath>
</defs>
</svg>
