<svg width="866" height="202" viewBox="0 0 866 202" fill="none" xmlns="http://www.w3.org/2000/svg">
<path d="M534.69 40.4523C501.38 40.4523 474.38 67.4872 474.38 100.84C474.38 134.193 501.38 161.228 534.69 161.228C568 161.228 595 134.193 595 100.84C595 67.4872 568 40.4523 534.69 40.4523ZM565.69 131.099C561.78 135.024 557.23 138.289 552.26 140.582C530.82 150.514 505.02 141.823 494.3 120.576C485.69 104.375 490.82 85.6607 500.4 71.232C497.58 76.1284 495.24 81.3451 493.78 86.8022C488.95 103.173 494.43 120.666 509.08 129.748C522.35 138.149 539.63 137.918 551.57 128.136C555.81 124.711 559.1 120.446 561.06 115.619C557.82 119.645 553.8 123.039 549.26 125.472C539.19 130.919 525.57 129.968 517.03 122.048C505.51 111.694 505.49 93.4207 518.61 84.5493C526.81 78.912 538.41 78.8419 546.36 84.8797C538.59 79.1323 526.92 79.6529 519.65 85.921C509.81 94.4721 512.1 108.65 522.14 115.84C534.35 124.581 550.37 117.071 556.19 104.385C562.56 90.4769 555.87 76.2485 541.51 71.7026C536.07 69.9804 530.07 69.7101 524.57 71.3122C524.35 71.3722 524.12 71.4423 523.9 71.5124C523.54 71.6225 523.19 71.7427 522.84 71.8729C522.44 72.0231 522.04 72.1833 521.64 72.3435C508.9 77.6804 501.87 92.2993 503.45 105.897C499.61 87.413 508.79 68.9191 526.6 61.88C550.42 52.4678 577.16 68.0279 579.99 93.7711C581.53 107.559 575.32 121.447 565.69 131.099ZM546.43 100.57C546.43 107.209 541.05 112.596 534.42 112.596C527.79 112.596 522.41 107.209 522.41 100.57C522.41 93.9314 527.79 88.5444 534.42 88.5444C541.05 88.5444 546.43 93.9314 546.43 100.57Z" fill="url(#paint0_linear_1_12)"/>
<path d="M94.11 152.006H77.17V96.4146C77.17 88.1839 74.26 81.1449 68.44 75.3173C62.62 69.4898 55.6 66.576 47.37 66.576C42.98 66.576 38.87 67.4672 35.03 69.2495C31.2 71.0318 27.88 73.485 25.1 76.629C20.08 82.2863 17.57 88.8748 17.57 96.4146V152.006H0.630005V0H17.57V59.4668C18.41 58.5557 21.84 56.6932 27.87 53.8696C33.9 51.046 40.4 49.6341 47.37 49.6341C54.34 49.6341 60.86 51.046 66.92 53.8696C72.98 56.6932 78.18 60.5883 82.5 65.5447C90.24 74.3361 94.11 84.6293 94.11 96.4246V152.006Z" fill="black"/>
<path d="M159.66 201.21C153.11 201.21 146.87 200.018 140.95 197.655C135.02 195.282 129 191.267 122.86 185.62L134.88 173.584C142.69 180.703 150.95 184.258 159.66 184.258C165.93 184.258 171.65 182.726 176.81 179.652C181.97 176.578 186.08 172.463 189.15 167.296C192.22 162.13 193.75 156.412 193.75 150.124V141.953C192.98 142.865 189.6 144.727 183.61 147.551C177.61 150.374 171.1 151.786 164.06 151.786C157.16 151.786 150.68 150.374 144.61 147.551C138.54 144.727 133.39 140.832 129.14 135.876C121.33 127.154 117.43 116.891 117.43 105.096V49.6141H134.47V105.096C134.47 113.336 137.36 120.345 143.15 126.133C148.93 131.93 155.91 134.824 164.06 134.824C168.52 134.824 172.67 133.933 176.5 132.151C180.33 130.368 183.61 127.945 186.33 124.871C191.28 119.084 193.75 112.485 193.75 105.086V49.6041H210.69L210.79 150.625C210.79 155.09 210.16 159.486 208.91 163.812C205.49 174.626 199.26 183.557 190.2 190.616C181.13 197.685 170.95 201.21 159.66 201.21Z" fill="black"/>
<path d="M249.58 201.21H232.64C232.64 133.022 232.71 97.9566 232.85 96.0041C233.76 87.0024 236.61 78.8919 241.42 71.6626C246.23 64.4433 252.45 58.6959 260.08 54.4404C267.71 50.1849 276.09 48.0521 285.22 48.0521C294.91 48.0521 303.73 50.4251 311.67 55.1713C319.62 59.9174 325.96 66.2656 330.7 74.2259C335.44 82.1862 337.81 91.0076 337.81 100.71C337.81 110.413 335.44 119.244 330.7 127.194C325.96 135.155 319.62 141.503 311.67 146.249C303.72 150.995 294.91 153.368 285.22 153.368C276.92 153.368 269.24 151.586 262.17 148.031C255.1 144.477 250.9 141.893 249.57 140.281V201.21H249.58ZM285.23 136.406C291.78 136.406 297.76 134.804 303.16 131.59C308.56 128.376 312.87 124.07 316.07 118.663C319.28 113.256 320.88 107.269 320.88 100.71C320.88 94.1517 319.28 88.1639 316.07 82.7569C312.86 77.3499 308.56 73.0344 303.16 69.8302C297.76 66.6161 291.78 65.014 285.23 65.014C278.68 65.014 272.7 66.6161 267.3 69.8302C261.9 73.0444 257.59 77.3499 254.39 82.7569C251.18 88.1639 249.58 94.1517 249.58 100.71C249.58 107.269 251.18 113.256 254.39 118.663C257.6 124.07 261.9 128.386 267.3 131.59C272.7 134.804 278.67 136.406 285.23 136.406Z" fill="black"/>
<path d="M451.99 152.006H435.05V96.5247C435.05 88.3541 432.16 81.3652 426.37 75.5376C420.58 69.7101 413.58 66.7963 405.36 66.7963C400.97 66.7963 396.86 67.6875 393.02 69.4698C389.19 71.2521 385.91 73.7053 383.19 76.8493C378.17 82.4365 375.66 88.995 375.66 96.5347V152.016H358.72V49.8244H375.66V59.6671C376.43 58.7559 379.82 56.8935 385.85 54.0699C391.88 51.2462 398.38 49.8344 405.35 49.8344C412.32 49.8344 418.82 51.2462 424.85 54.0699C430.88 56.8935 436.05 60.7886 440.37 65.745C448.11 74.4662 451.97 84.7295 451.97 96.5247V152.006H451.99Z" fill="black"/>
<path d="M652.61 153.008C644.94 153.008 637.82 151.456 631.23 148.352C624.64 145.248 618.35 140.271 612.36 133.432L624.49 121.397C629.09 126.774 633.62 130.539 638.08 132.701C642.54 134.864 647.38 135.946 652.61 135.946C659.72 135.946 666.24 133.883 672.16 129.768C674.04 128.516 675.63 127.114 676.92 125.582C678.21 124.05 678.85 122.338 678.85 120.456C678.85 118.153 678.05 116.18 676.44 114.538C674.84 112.896 672.76 111.504 670.22 110.353C667.67 109.201 665.18 108.35 662.74 107.789C659.74 107.088 656.62 106.688 653.38 106.588C650.14 106.488 646.81 106.087 643.4 105.386C637.75 104.135 632.47 101.762 627.56 98.267C622.65 94.7825 619.32 89.9963 617.58 83.9285C617.09 81.9759 616.85 80.0234 616.85 78.0709C616.85 74.9969 617.34 72.1032 618.31 69.3796C620.19 64.6335 623.02 60.8887 626.78 58.1251C630.54 55.3715 634.71 53.429 639.27 52.3176C643.83 51.2062 648.28 50.6454 652.6 50.6454C658.94 50.6454 664.95 51.7268 670.64 53.8896C676.32 56.0524 682.23 59.8273 688.36 65.1942L676.34 77.1297C668.67 70.7815 660.76 67.6074 652.61 67.6074C650.03 67.6074 647.21 67.9578 644.14 68.6587C641.07 69.3596 638.58 70.461 636.66 71.953C634.74 73.4549 633.78 75.4975 633.78 78.0809C633.78 80.8044 634.93 82.9973 637.23 84.6794C642.18 87.8936 648.1 89.5657 655 89.7059C663.78 90.1264 671.62 92.149 678.52 95.7737C682.42 97.7262 685.91 100.28 688.98 103.414C693.51 108.23 695.78 113.917 695.78 120.476C695.78 127.385 693.37 133.252 688.57 138.058C683.76 142.875 678.24 146.569 672 149.153C665.77 151.716 659.3 153.008 652.61 153.008Z" fill="black"/>
<path d="M723.71 36.2168C720.78 36.2168 718.29 35.1855 716.23 33.1328C714.17 31.0701 713.15 28.5769 713.15 25.6431C713.15 22.7093 714.18 20.2161 716.23 18.1535C718.29 16.0908 720.78 15.0695 723.71 15.0695C726.64 15.0695 729.13 16.1008 731.19 18.1535C733.24 20.2161 734.27 22.7093 734.27 25.6431C734.27 28.5769 733.24 31.0701 731.19 33.1328C729.13 35.1955 726.63 36.2168 723.71 36.2168ZM732.18 152.006H715.24V49.6241H732.18V152.006Z" fill="black"/>
<path d="M808.29 153.578C798.6 153.578 789.78 151.205 781.84 146.459C773.89 141.713 767.55 135.365 762.81 127.405C758.07 119.444 755.7 110.623 755.7 100.92C755.7 91.2879 758.07 82.4766 762.81 74.4862C767.55 66.4959 773.89 60.1277 781.84 55.3816C789.79 50.6354 798.6 48.2623 808.29 48.2623C815.96 48.2623 823.31 49.9045 830.35 53.1787C837.39 56.4629 843.42 61.0289 848.44 66.8964C852.48 71.7828 855.51 77.0896 857.54 82.807C859.56 88.5344 860.82 94.5021 861.3 100.71L866.01 152.006H848.86L848.02 136.717C846.69 138.809 842.11 142.144 834.27 146.72C826.43 151.285 817.77 153.578 808.29 153.578ZM808.29 136.617C814.84 136.617 820.82 135.014 826.22 131.8C831.62 128.586 835.93 124.281 839.13 118.874C842.33 113.467 843.94 107.479 843.94 100.92C843.94 94.3619 842.34 88.3742 839.13 82.9672C835.92 77.5602 831.62 73.2446 826.22 70.0405C820.82 66.8263 814.84 65.2243 808.29 65.2243C801.74 65.2243 795.76 66.8263 790.36 70.0405C784.96 73.2546 780.65 77.5602 777.45 82.9672C774.24 88.3742 772.64 94.3619 772.64 100.92C772.64 107.479 774.24 113.467 777.45 118.874C780.65 124.281 784.96 128.596 790.36 131.8C795.76 135.004 801.74 136.617 808.29 136.617Z" fill="black"/>
<defs>
<linearGradient id="paint0_linear_1_12" x1="480.518" y1="139.061" x2="580.213" y2="68.9065" gradientUnits="userSpaceOnUse">
<stop offset="0.1757" stop-color="#2A304A"/>
<stop offset="1" stop-color="#50B0A7"/>
</linearGradient>
</defs>
</svg>
