<?xml version="1.0" ?><!DOCTYPE svg  PUBLIC '-//W3C//DTD SVG 1.1//EN'  'http://www.w3.org/Graphics/SVG/1.1/DTD/svg11.dtd'><svg enable-background="new 0 0 128 128" id="Слой_1" version="1.1" viewBox="0 0 128 128" xml:space="preserve" xmlns="http://www.w3.org/2000/svg" xmlns:xlink="http://www.w3.org/1999/xlink"><path d="M98.3,124H29c-2.9,0-5.2-2.5-5-5.4l2.1-29.7C27.6,69.2,43.9,54,63.7,54h0c19.7,0,36.1,15.2,37.5,34.9  l2.1,29.7C103.5,121.5,101.2,124,98.3,124z" fill="#F2E7AC"/><g opacity="0.1"><path d="M63.7,54c-19.7,0-36.1,15.2-37.5,34.9L24,118.6c-0.2,2.9,2.1,5.4,5,5.4h10c-2.9,0-5.2-2.5-5-5.4l2.1-29.7   c1.3-18,10.1-32.2,27.5-34.6C62,54.1,65.4,54,63.7,54L63.7,54z"/></g><path d="M124,29L124,29c0,8.3-6.7,15-15,15H19c-8.3,0-15-6.7-15-15v0" fill="#A5A4AA"/><g opacity="0.1"><path d="M14,29H4c0,8.3,6.7,15,15,15h10C20.7,44,14,37.3,14,29z"/></g><path d="M38.7,92c0-13.8,11.2-25,25-25s25,11.2,25,25" fill="#F8F7FB"/><g><path d="M63.7,54c6.8,0,13.2,1.8,18.7,5h1.3V44h-40v15h1.3C50.5,55.8,56.9,54,63.7,54L63.7,54z" fill="#F2E7AC"/></g><g><path d="M43.7,44v15h1.3c2.7-1.6,5.7-2.8,8.7-3.6V44H43.7z" opacity="0.1"/><path d="M73.7,54c-1.7,0-3.4,0.1-5,0.3c4.9,0.7,9.6,2.3,13.7,4.7h1.3v-3.6C80.5,54.5,77.1,54,73.7,54L73.7,54z" fill="#F2E7AC"/></g><line fill="#EFEB66" x1="53.7" x2="63.7" y1="92" y2="92"/><line fill="#EFEB66" x1="88.7" x2="83.7" y1="92" y2="92"/><line fill="#EFEB66" x1="81.3" x2="77.8" y1="74.3" y2="77.9"/><line fill="#EFEB66" x1="63.7" x2="63.7" y1="67" y2="72"/><line fill="#EFEB66" x1="46" x2="49.5" y1="74.3" y2="77.9"/><line fill="#EFEB66" x1="38.7" x2="43.7" y1="92" y2="92"/><line fill="#EFEB66" x1="4" x2="124" y1="29" y2="29"/><g><path d="M63.7,89.5h-10c-1.4,0-2.5,1.1-2.5,2.5s1.1,2.5,2.5,2.5h10c1.4,0,2.5-1.1,2.5-2.5S65,89.5,63.7,89.5z" fill="#62355C"/><path d="M83,72.4c-5-4.9-11.8-7.9-19.3-7.9c0,0,0,0,0,0s0,0,0,0c-7.5,0-14.3,3-19.3,7.9c-0.1,0-0.1,0.1-0.2,0.1   c0,0-0.1,0.1-0.1,0.2c-4.9,5-7.9,11.8-7.9,19.3c0,0,0,0,0,0c0,1.4,1.1,2.5,2.5,2.5h5c1.4,0,2.5-1.1,2.5-2.5s-1.1-2.5-2.5-2.5h-2.4   c0.5-4.3,2.2-8.3,4.8-11.5l1.7,1.7c0.5,0.5,1.1,0.7,1.8,0.7s1.3-0.2,1.8-0.7c1-1,1-2.6,0-3.5l-1.7-1.7c3.2-2.6,7.2-4.3,11.5-4.8V72   c0,1.4,1.1,2.5,2.5,2.5s2.5-1.1,2.5-2.5v-2.4c4.3,0.5,8.3,2.2,11.5,4.8L76,76.1c-1,1-1,2.6,0,3.5c0.5,0.5,1.1,0.7,1.8,0.7   s1.3-0.2,1.8-0.7l1.7-1.7c2.6,3.2,4.3,7.2,4.8,11.5h-2.4c-1.4,0-2.5,1.1-2.5,2.5s1.1,2.5,2.5,2.5h5c1.4,0,2.5-1.1,2.5-2.5   c0,0,0,0,0,0c0-7.5-3-14.3-7.9-19.3c0-0.1-0.1-0.1-0.1-0.2C83.1,72.5,83,72.5,83,72.4z" fill="#62355C"/><path d="M124,26.5H4c-1.4,0-2.5,1.1-2.5,2.5c0,9.7,7.9,17.5,17.5,17.5h22.2v12c-9.8,6.7-16.6,17.7-17.5,30.3   l-2.1,29.7c-0.1,2.1,0.6,4.1,2,5.6s3.4,2.4,5.5,2.4h69.3c2.1,0,4.1-0.9,5.5-2.4c1.4-1.5,2.1-3.6,2-5.6l-2.1-29.7   c-0.9-12.6-7.7-23.6-17.5-30.3v-12H109c9.7,0,17.5-7.9,17.5-17.5C126.5,27.6,125.4,26.5,124,26.5z M98.7,89.1l2.1,29.7   c0,0.7-0.2,1.4-0.7,1.9c-0.5,0.5-1.1,0.8-1.8,0.8H29c-0.7,0-1.4-0.3-1.8-0.8c-0.5-0.5-0.7-1.2-0.7-1.9l2.1-29.7   c1.3-18.3,16.7-32.6,35-32.6C82,56.5,97.4,70.8,98.7,89.1z M46.2,55.6v-9.1h35v9.1c-5.3-2.6-11.3-4.1-17.5-4.1   C57.4,51.5,51.5,53,46.2,55.6z M109,41.5H83.7h-40H19c-6,0-11.1-4.3-12.2-10h114.5C120.1,37.2,115,41.5,109,41.5z" fill="#62355C"/></g></svg>