<svg fill="none" height="56" viewBox="0 0 56 56" width="56" xmlns="http://www.w3.org/2000/svg"><path clip-rule="evenodd" d="m15.3125 31.2813c-3.6094 0-6.5625 2.9531-6.5625 6.5625 0 3.6093 2.9531 6.5625 6.5625 6.5625 2.2575 0 4.1045 1.8473 4.1045 4.1045v3.5517h7.3858v-7.9267c0-2.2573-1.847-4.1045-4.1045-4.1045h12.7649c.9948-4.3837 4.9148-7.6563 9.5994-7.6563.8548 0 1.6841.1092 2.4747.3139.5064.1312.9968.3019 1.4682.5082.1392-.6171.2133-1.2583.2133-1.9158 0-4.8125-3.9375-8.7499-8.7499-8.7499h-6.0157c3.6094 0 6.5625-2.9532 6.5625-6.5625 0-3.6094-2.9531-6.56253-6.5625-6.56253-2.2575 0-4.1045-1.84723-4.1045-4.10451v-1.36424h-7.3857v5.73924c0 2.25724 1.847 4.10454 4.1045 4.10454h-17.22386c-4.81239-.0001-8.74989 3.9374-8.74989 8.7499s3.9375 8.75 8.74989 8.75z" fill="#ffbdbc" fill-rule="evenodd"/><path clip-rule="evenodd" d="m54.9062 42.2188c0-4.5819-3.1303-8.4325-7.369-9.5299-.7907-.2047-1.6199-.3139-2.4747-.3139-5.4365 0-9.8437 4.4072-9.8437 9.8438 0 .4889.0362.9693.1049 1.4392-.0002 0-.0003.0001-.0005.0002.6966 4.7542 4.7917 8.4043 9.7392 8.4043 5.4367-.0001 9.8438-4.4073 9.8438-9.8437zm-10.2835-2.0014c0 1.2082-.9793 2.1875-2.1875 2.1875-1.208 0-2.1875-.9793-2.1875-2.1875s.9793-2.1875 2.1875-2.1875 2.1875.9793 2.1875 2.1875z" fill="#c193dc" fill-rule="evenodd"/><path d="m42.7364 42.3854c1.1965-.167 2.0311-1.2725 1.864-2.469s-1.2725-2.031-2.4691-1.864c-1.1965.1671-2.031 1.2726-1.8639 2.4691s1.2725 2.031 2.469 1.8639z" fill="#ff7b79"/><g stroke="#000" stroke-linecap="round" stroke-linejoin="round" stroke-miterlimit="2.6131" stroke-width="1.5"><path d="m35.5467 31.2812h-25.70306c-4.81239 0-8.74989-3.9374-8.74989-8.75 0-4.6248 3.63661-8.4409 8.19142-8.7315m9.84363-.0185h12.0429m-21.32806 8.75h30.62496c4.8125 0 8.7499 3.9375 8.7499 8.7499 0 .6191-.0656 1.2235-.1894 1.8071m-13.6779 6.9429h-16.7574"/><path d="m45.0625 52.0625c5.4366 0 9.8437-4.4072 9.8437-9.8437 0-5.4366-4.4071-9.8438-9.8437-9.8438s-9.8437 4.4072-9.8437 9.8438c0 5.4365 4.4071 9.8437 9.8437 9.8437z"/><path d="m49.7363 45.0604h.0008"/><path d="m49.3398 40.2882h.0008"/><path d="m44.4766 46.5242h.0006"/><path d="m42.5585 42.4017c1.2063-.0667 2.1302-1.0987 2.0635-2.305s-1.0987-2.1301-2.305-2.0635c-1.2063.0667-2.1301 1.0987-2.0634 2.305s1.0986 2.1302 2.3049 2.0635z"/><path d="m15.3094 31.2812c-3.6079.0017-6.5594 2.9542-6.5594 6.5626 0 3.6093 2.9531 6.5624 6.5625 6.5624 2.2575 0 4.1045 1.8474 4.1045 4.1046v3.5517"/><path d="m22.6992 40.0311c2.2574.0001 4.1042 1.8474 4.1042 4.1045v7.9268"/><path d="m34.4525 22.5313c3.6093-.0001 6.5622-2.9532 6.5622-6.5625 0-3.6094-2.9532-6.56254-6.5625-6.56254-2.2575 0-4.1045-1.84723-4.1045-4.10451v-1.36413"/><path d="m27.0671 13.7813c-2.2573-.0001-4.1042-1.8473-4.1042-4.10455v-5.73913"/><path d="m14.207 13.7812h.0007"/></g></svg>